<?xml version="1.0" encoding="UTF-8" standalone="no"?>
<!DOCTYPE svg PUBLIC "-//W3C//DTD SVG 1.1//EN"
 "http://www.w3.org/Graphics/SVG/1.1/DTD/svg11.dtd">
<!-- Generated by graphviz version 2.28.0 (20121209.2319)
 -->
<!-- Title: controllers_diagram Pages: 1 -->
<svg width="695pt" height="534pt"
 viewBox="0.00 0.00 695.03 534.00" xmlns="http://www.w3.org/2000/svg" xmlns:xlink="http://www.w3.org/1999/xlink">
<g id="graph1" class="graph" transform="scale(1 1) rotate(0) translate(4 530)">
<title>controllers_diagram</title>
<polygon fill="white" stroke="white" points="-4,5 -4,-530 692.025,-530 692.025,5 -4,5"/>
<!-- _diagram_info -->
<g id="node1" class="node"><title>_diagram_info</title>
<text text-anchor="start" x="487.65" y="-509" font-family="Times,serif" font-size="13.00">Controllers diagram</text>
<text text-anchor="start" x="487.65" y="-493.4" font-family="Times,serif" font-size="13.00">Date: Dec 09 2012 &#45; 23:21</text>
<text text-anchor="start" x="487.65" y="-477.8" font-family="Times,serif" font-size="13.00">Migration version: 20121209225331</text>
<text text-anchor="start" x="487.65" y="-462.2" font-family="Times,serif" font-size="13.00">Generated by RailRoady 1.1.0</text>
<text text-anchor="start" x="487.65" y="-446.6" font-family="Times,serif" font-size="13.00">http://railroady.prestonlee.com</text>
</g>
<!-- ApplicationController -->
<g id="node2" class="node"><title>ApplicationController</title>
<polyline fill="none" stroke="black" points="181.05,-166.358 359.685,-166.358 "/>
<path fill="none" stroke="black" d="M359.685,-166.358C365.685,-166.358 371.685,-172.358 371.685,-178.358"/>
<polyline fill="none" stroke="black" points="371.685,-178.358 371.685,-252.758 "/>
<path fill="none" stroke="black" d="M371.685,-252.758C371.685,-258.758 365.685,-264.758 359.685,-264.758"/>
<polyline fill="none" stroke="black" points="359.685,-264.758 181.05,-264.758 "/>
<path fill="none" stroke="black" d="M181.05,-264.758C175.05,-264.758 169.05,-258.758 169.05,-252.758"/>
<polyline fill="none" stroke="black" points="169.05,-252.758 169.05,-178.358 "/>
<path fill="none" stroke="black" d="M169.05,-178.358C169.05,-172.358 175.05,-166.358 181.05,-166.358"/>
<text text-anchor="middle" x="270.368" y="-246.758" font-family="Times,serif" font-size="14.00">ApplicationController</text>
<polyline fill="none" stroke="black" points="169.05,-239.958 371.685,-239.958 "/>
<text text-anchor="start" x="177.05" y="-221.958" font-family="Times,serif" font-size="14.00">_one_time_conditions_valid_10?</text>
<polyline fill="none" stroke="black" points="169.05,-215.158 371.685,-215.158 "/>
<polyline fill="none" stroke="black" points="169.05,-191.158 371.685,-191.158 "/>
<text text-anchor="start" x="177.05" y="-173.158" font-family="Times,serif" font-size="14.00">_layout</text>
</g>
<!-- DegreeClassesController -->
<g id="node3" class="node"><title>DegreeClassesController</title>
<polyline fill="none" stroke="black" points="330.184,-6.24609 462.143,-6.24609 "/>
<path fill="none" stroke="black" d="M462.143,-6.24609C468.143,-6.24609 474.143,-12.2461 474.143,-18.2461"/>
<polyline fill="none" stroke="black" points="474.143,-18.2461 474.143,-109.446 "/>
<path fill="none" stroke="black" d="M474.143,-109.446C474.143,-115.446 468.143,-121.446 462.143,-121.446"/>
<polyline fill="none" stroke="black" points="462.143,-121.446 330.184,-121.446 "/>
<path fill="none" stroke="black" d="M330.184,-121.446C324.184,-121.446 318.184,-115.446 318.184,-109.446"/>
<polyline fill="none" stroke="black" points="318.184,-109.446 318.184,-18.2461 "/>
<path fill="none" stroke="black" d="M318.184,-18.2461C318.184,-12.2461 324.184,-6.24609 330.184,-6.24609"/>
<text text-anchor="middle" x="396.163" y="-103.446" font-family="Times,serif" font-size="14.00">DegreeClassesController</text>
<polyline fill="none" stroke="black" points="318.184,-96.6461 474.143,-96.6461 "/>
<text text-anchor="start" x="326.184" y="-78.6461" font-family="Times,serif" font-size="14.00">index</text>
<text text-anchor="start" x="326.184" y="-61.8461" font-family="Times,serif" font-size="14.00">show</text>
<polyline fill="none" stroke="black" points="318.184,-55.0461 474.143,-55.0461 "/>
<polyline fill="none" stroke="black" points="318.184,-31.0461 474.143,-31.0461 "/>
<text text-anchor="start" x="326.184" y="-13.0461" font-family="Times,serif" font-size="14.00">_layout</text>
</g>
<!-- ApplicationController&#45;&gt;DegreeClassesController -->
<g id="edge2" class="edge"><title>ApplicationController&#45;&gt;DegreeClassesController</title>
<path fill="none" stroke="black" d="M311.21,-166.301C323.047,-152.025 336.078,-136.31 348.303,-121.566"/>
</g>
<!-- HomeController -->
<g id="node4" class="node"><title>HomeController</title>
<polyline fill="none" stroke="black" points="122.354,-0.5 206.112,-0.5 "/>
<path fill="none" stroke="black" d="M206.112,-0.5C212.112,-0.5 218.112,-6.5 218.112,-12.5"/>
<polyline fill="none" stroke="black" points="218.112,-12.5 218.112,-86.9 "/>
<path fill="none" stroke="black" d="M218.112,-86.9C218.112,-92.9 212.112,-98.9 206.112,-98.9"/>
<polyline fill="none" stroke="black" points="206.112,-98.9 122.354,-98.9 "/>
<path fill="none" stroke="black" d="M122.354,-98.9C116.354,-98.9 110.354,-92.9 110.354,-86.9"/>
<polyline fill="none" stroke="black" points="110.354,-86.9 110.354,-12.5 "/>
<path fill="none" stroke="black" d="M110.354,-12.5C110.354,-6.5 116.354,-0.5 122.354,-0.5"/>
<text text-anchor="middle" x="164.233" y="-80.9" font-family="Times,serif" font-size="14.00">HomeController</text>
<polyline fill="none" stroke="black" points="110.354,-74.1 218.112,-74.1 "/>
<text text-anchor="start" x="118.354" y="-56.1" font-family="Times,serif" font-size="14.00">index</text>
<polyline fill="none" stroke="black" points="110.354,-49.3 218.112,-49.3 "/>
<polyline fill="none" stroke="black" points="110.354,-25.3 218.112,-25.3 "/>
<text text-anchor="start" x="118.354" y="-7.3" font-family="Times,serif" font-size="14.00">_layout</text>
</g>
<!-- ApplicationController&#45;&gt;HomeController -->
<g id="edge4" class="edge"><title>ApplicationController&#45;&gt;HomeController</title>
<path fill="none" stroke="black" d="M238.811,-166.244C225.246,-145.046 209.423,-120.319 195.851,-99.1102"/>
</g>
<!-- LectureCoursesController -->
<g id="node5" class="node"><title>LectureCoursesController</title>
<polyline fill="none" stroke="black" points="11.6499,-209.729 149.05,-209.729 "/>
<path fill="none" stroke="black" d="M149.05,-209.729C155.05,-209.729 161.05,-215.729 161.05,-221.729"/>
<polyline fill="none" stroke="black" points="161.05,-221.729 161.05,-312.929 "/>
<path fill="none" stroke="black" d="M161.05,-312.929C161.05,-318.929 155.05,-324.929 149.05,-324.929"/>
<polyline fill="none" stroke="black" points="149.05,-324.929 11.6499,-324.929 "/>
<path fill="none" stroke="black" d="M11.6499,-324.929C5.6499,-324.929 -0.350098,-318.929 -0.350098,-312.929"/>
<polyline fill="none" stroke="black" points="-0.350098,-312.929 -0.350098,-221.729 "/>
<path fill="none" stroke="black" d="M-0.350098,-221.729C-0.350098,-215.729 5.6499,-209.729 11.6499,-209.729"/>
<text text-anchor="middle" x="80.3501" y="-306.929" font-family="Times,serif" font-size="14.00">LectureCoursesController</text>
<polyline fill="none" stroke="black" points="-0.350098,-300.129 161.05,-300.129 "/>
<text text-anchor="start" x="7.6499" y="-282.129" font-family="Times,serif" font-size="14.00">index</text>
<text text-anchor="start" x="7.6499" y="-265.329" font-family="Times,serif" font-size="14.00">show</text>
<polyline fill="none" stroke="black" points="-0.350098,-258.529 161.05,-258.529 "/>
<polyline fill="none" stroke="black" points="-0.350098,-234.529 161.05,-234.529 "/>
<text text-anchor="start" x="7.6499" y="-216.529" font-family="Times,serif" font-size="14.00">_layout</text>
</g>
<!-- ApplicationController&#45;&gt;LectureCoursesController -->
<g id="edge6" class="edge"><title>ApplicationController&#45;&gt;LectureCoursesController</title>
<path fill="none" stroke="black" d="M168.961,-243.187C166.397,-243.885 163.838,-244.582 161.294,-245.276"/>
</g>
<!-- RoomsController -->
<g id="node6" class="node"><title>RoomsController</title>
<polyline fill="none" stroke="black" points="409.59,-195.81 498.811,-195.81 "/>
<path fill="none" stroke="black" d="M498.811,-195.81C504.811,-195.81 510.811,-201.81 510.811,-207.81"/>
<polyline fill="none" stroke="black" points="510.811,-207.81 510.811,-366.21 "/>
<path fill="none" stroke="black" d="M510.811,-366.21C510.811,-372.21 504.811,-378.21 498.811,-378.21"/>
<polyline fill="none" stroke="black" points="498.811,-378.21 409.59,-378.21 "/>
<path fill="none" stroke="black" d="M409.59,-378.21C403.59,-378.21 397.59,-372.21 397.59,-366.21"/>
<polyline fill="none" stroke="black" points="397.59,-366.21 397.59,-207.81 "/>
<path fill="none" stroke="black" d="M397.59,-207.81C397.59,-201.81 403.59,-195.81 409.59,-195.81"/>
<text text-anchor="middle" x="454.201" y="-360.21" font-family="Times,serif" font-size="14.00">RoomsController</text>
<polyline fill="none" stroke="black" points="397.59,-353.41 510.811,-353.41 "/>
<text text-anchor="start" x="405.59" y="-335.41" font-family="Times,serif" font-size="14.00">create</text>
<text text-anchor="start" x="405.59" y="-318.61" font-family="Times,serif" font-size="14.00">destroy</text>
<text text-anchor="start" x="405.59" y="-301.81" font-family="Times,serif" font-size="14.00">edit</text>
<text text-anchor="start" x="405.59" y="-285.01" font-family="Times,serif" font-size="14.00">index</text>
<text text-anchor="start" x="405.59" y="-268.21" font-family="Times,serif" font-size="14.00">new</text>
<text text-anchor="start" x="405.59" y="-251.41" font-family="Times,serif" font-size="14.00">update</text>
<polyline fill="none" stroke="black" points="397.59,-244.61 510.811,-244.61 "/>
<polyline fill="none" stroke="black" points="397.59,-220.61 510.811,-220.61 "/>
<text text-anchor="start" x="405.59" y="-202.61" font-family="Times,serif" font-size="14.00">_layout</text>
</g>
<!-- ApplicationController&#45;&gt;RoomsController -->
<g id="edge8" class="edge"><title>ApplicationController&#45;&gt;RoomsController</title>
<path fill="none" stroke="black" d="M371.694,-254.942C380.517,-258.371 389.223,-261.755 397.483,-264.965"/>
</g>
<!-- StaffMembersController -->
<g id="node7" class="node"><title>StaffMembersController</title>
<polyline fill="none" stroke="black" points="196.382,-354.88 325.77,-354.88 "/>
<path fill="none" stroke="black" d="M325.77,-354.88C331.77,-354.88 337.77,-360.88 337.77,-366.88"/>
<polyline fill="none" stroke="black" points="337.77,-366.88 337.77,-458.08 "/>
<path fill="none" stroke="black" d="M337.77,-458.08C337.77,-464.08 331.77,-470.08 325.77,-470.08"/>
<polyline fill="none" stroke="black" points="325.77,-470.08 196.382,-470.08 "/>
<path fill="none" stroke="black" d="M196.382,-470.08C190.382,-470.08 184.382,-464.08 184.382,-458.08"/>
<polyline fill="none" stroke="black" points="184.382,-458.08 184.382,-366.88 "/>
<path fill="none" stroke="black" d="M184.382,-366.88C184.382,-360.88 190.382,-354.88 196.382,-354.88"/>
<text text-anchor="middle" x="261.076" y="-452.08" font-family="Times,serif" font-size="14.00">StaffMembersController</text>
<polyline fill="none" stroke="black" points="184.382,-445.28 337.77,-445.28 "/>
<text text-anchor="start" x="192.382" y="-427.28" font-family="Times,serif" font-size="14.00">index</text>
<text text-anchor="start" x="192.382" y="-410.48" font-family="Times,serif" font-size="14.00">show</text>
<polyline fill="none" stroke="black" points="184.382,-403.68 337.77,-403.68 "/>
<polyline fill="none" stroke="black" points="184.382,-379.68 337.77,-379.68 "/>
<text text-anchor="start" x="192.382" y="-361.68" font-family="Times,serif" font-size="14.00">_layout</text>
</g>
<!-- ApplicationController&#45;&gt;StaffMembersController -->
<g id="edge10" class="edge"><title>ApplicationController&#45;&gt;StaffMembersController</title>
<path fill="none" stroke="black" d="M268.035,-264.995C266.75,-292.225 265.149,-326.17 263.806,-354.627"/>
</g>
</g>
</svg>
