<?xml version="1.0" encoding="UTF-8" standalone="no"?>
<!DOCTYPE svg PUBLIC "-//W3C//DTD SVG 1.1//EN"
 "http://www.w3.org/Graphics/SVG/1.1/DTD/svg11.dtd">
<!-- Generated by graphviz version 2.28.0 (20121209.2319)
 -->
<!-- Title: models_diagram Pages: 1 -->
<svg width="702pt" height="310pt"
 viewBox="0.00 0.00 702.00 310.00" xmlns="http://www.w3.org/2000/svg" xmlns:xlink="http://www.w3.org/1999/xlink">
<g id="graph1" class="graph" transform="scale(1 1) rotate(0) translate(4 306)">
<title>models_diagram</title>
<polygon fill="white" stroke="white" points="-4,5 -4,-306 699,-306 699,5 -4,5"/>
<!-- _diagram_info -->
<g id="node1" class="node"><title>_diagram_info</title>
<text text-anchor="start" x="217.312" y="-285" font-family="Times,serif" font-size="13.00">Models diagram</text>
<text text-anchor="start" x="217.312" y="-269.4" font-family="Times,serif" font-size="13.00">Date: Dec 09 2012 &#45; 23:21</text>
<text text-anchor="start" x="217.312" y="-253.8" font-family="Times,serif" font-size="13.00">Migration version: 20121209225331</text>
<text text-anchor="start" x="217.312" y="-238.2" font-family="Times,serif" font-size="13.00">Generated by RailRoady 1.1.0</text>
<text text-anchor="start" x="217.312" y="-222.6" font-family="Times,serif" font-size="13.00">http://railroady.prestonlee.com</text>
</g>
<!-- CourseWeek -->
<g id="node2" class="node"><title>CourseWeek</title>
<ellipse fill="none" stroke="black" cx="365" cy="-18" rx="60.2127" ry="18"/>
<text text-anchor="middle" x="365" y="-12.4" font-family="Times,serif" font-size="14.00">CourseWeek</text>
</g>
<!-- Day -->
<g id="node3" class="node"><title>Day</title>
<ellipse fill="none" stroke="black" cx="648" cy="-162" rx="27.188" ry="18"/>
<text text-anchor="middle" x="648" y="-156.4" font-family="Times,serif" font-size="14.00">Day</text>
</g>
<!-- TimeSlot -->
<g id="node11" class="node"><title>TimeSlot</title>
<ellipse fill="none" stroke="black" cx="648" cy="-90" rx="46.4692" ry="18"/>
<text text-anchor="middle" x="648" y="-84.4" font-family="Times,serif" font-size="14.00">TimeSlot</text>
</g>
<!-- Day&#45;&gt;TimeSlot -->
<g id="edge2" class="edge"><title>Day&#45;&gt;TimeSlot</title>
<path fill="none" stroke="#c54539" d="M648,-135.64C648,-130.063 648,-124.132 648,-118.476"/>
<ellipse fill="none" stroke="#c54539" cx="648" cy="-139.697" rx="4" ry="4"/>
<polygon fill="#c54539" stroke="#c54539" points="648,-118.104 652.5,-108.104 648,-113.104 648,-108.104 648,-108.104 648,-108.104 648,-113.104 643.5,-108.104 648,-118.104 648,-118.104"/>
</g>
<!-- DegreeClass -->
<g id="node4" class="node"><title>DegreeClass</title>
<ellipse fill="none" stroke="black" cx="59" cy="-90" rx="59.2614" ry="18"/>
<text text-anchor="middle" x="59" y="-84.4" font-family="Times,serif" font-size="14.00">DegreeClass</text>
</g>
<!-- Requirement -->
<g id="node7" class="node"><title>Requirement</title>
<ellipse fill="none" stroke="black" cx="90" cy="-18" rx="60.3733" ry="18"/>
<text text-anchor="middle" x="90" y="-12.4" font-family="Times,serif" font-size="14.00">Requirement</text>
</g>
<!-- DegreeClass&#45;&gt;Requirement -->
<g id="edge4" class="edge"><title>DegreeClass&#45;&gt;Requirement</title>
<path fill="none" stroke="#a4f939" d="M69.8289,-64.5475C72.5389,-58.4284 75.4589,-51.8347 78.2128,-45.6163"/>
<ellipse fill="none" stroke="#a4f939" cx="68.124" cy="-68.3976" rx="4.00002" ry="4.00002"/>
<polygon fill="#a4f939" stroke="#a4f939" points="78.3002,-45.4188 86.4641,-38.0975 80.3249,-40.8471 82.3495,-36.2753 82.3495,-36.2753 82.3495,-36.2753 80.3249,-40.8471 78.2349,-34.4531 78.3002,-45.4188 78.3002,-45.4188"/>
</g>
<!-- LectureCourse -->
<g id="node5" class="node"><title>LectureCourse</title>
<ellipse fill="none" stroke="black" cx="230" cy="-162" rx="67.3203" ry="18"/>
<text text-anchor="middle" x="230" y="-156.4" font-family="Times,serif" font-size="14.00">LectureCourse</text>
</g>
<!-- LectureCourse&#45;&gt;CourseWeek -->
<g id="edge14" class="edge"><title>LectureCourse&#45;&gt;CourseWeek</title>
<path fill="none" stroke="#14cd20" d="M287.151,-146.787C308.527,-138.739 331.189,-126.455 346,-108 359.869,-90.7176 364.245,-65.658 365.366,-46.5305"/>
<ellipse fill="none" stroke="#14cd20" cx="283.119" cy="-148.222" rx="4.00001" ry="4.00001"/>
<polygon fill="#14cd20" stroke="#14cd20" points="365.372,-46.3247 370.193,-36.4753 365.534,-41.3273 365.695,-36.3299 365.695,-36.3299 365.695,-36.3299 365.534,-41.3273 361.198,-36.1845 365.372,-46.3247 365.372,-46.3247"/>
</g>
<!-- LectureCourse&#45;&gt;DegreeClass -->
<g id="edge12" class="edge"><title>LectureCourse&#45;&gt;DegreeClass</title>
<path fill="none" stroke="#51846f" d="M185.116,-142.626C159.523,-132.15 127.606,-119.084 102.284,-108.719"/>
<polygon fill="#51846f" stroke="#51846f" points="185.314,-142.707 192.864,-150.661 189.941,-144.602 194.569,-146.496 194.569,-146.496 194.569,-146.496 189.941,-144.602 196.274,-142.331 185.314,-142.707 185.314,-142.707"/>
<polygon fill="#51846f" stroke="#51846f" points="102.184,-108.678 94.6342,-100.725 97.5567,-106.783 92.9294,-104.889 92.9294,-104.889 92.9294,-104.889 97.5567,-106.783 91.2246,-109.054 102.184,-108.678 102.184,-108.678"/>
</g>
<!-- Lecturer -->
<g id="node6" class="node"><title>Lecturer</title>
<ellipse fill="none" stroke="black" cx="214" cy="-18" rx="43.605" ry="18"/>
<text text-anchor="middle" x="214" y="-12.4" font-family="Times,serif" font-size="14.00">Lecturer</text>
</g>
<!-- LectureCourse&#45;&gt;Lecturer -->
<g id="edge8" class="edge"><title>LectureCourse&#45;&gt;Lecturer</title>
<path fill="none" stroke="#abb3fe" d="M215.383,-137.065C210.791,-128.255 206.317,-117.984 204,-108 199.211,-87.3623 202.353,-63.4802 206.34,-45.6541"/>
<ellipse fill="none" stroke="#abb3fe" cx="217.304" cy="-140.575" rx="4.00002" ry="4.00002"/>
<polygon fill="#abb3fe" stroke="#abb3fe" points="206.343,-45.6391 213.101,-37.003 207.537,-40.7838 208.731,-35.9284 208.731,-35.9284 208.731,-35.9284 207.537,-40.7838 204.361,-34.8538 206.343,-45.6391 206.343,-45.6391"/>
</g>
<!-- LectureCourse&#45;&gt;Requirement -->
<g id="edge6" class="edge"><title>LectureCourse&#45;&gt;Requirement</title>
<path fill="none" stroke="#59877b" d="M207.956,-138.641C182.234,-112.552 139.876,-69.5881 113.532,-42.8678"/>
<ellipse fill="none" stroke="#59877b" cx="210.858" cy="-141.584" rx="4.00002" ry="4.00002"/>
<polygon fill="#59877b" stroke="#59877b" points="113.251,-42.5827 109.434,-32.3022 109.74,-39.0221 106.23,-35.4616 106.23,-35.4616 106.23,-35.4616 109.74,-39.0221 103.025,-38.6209 113.251,-42.5827 113.251,-42.5827"/>
</g>
<!-- StaffMember -->
<g id="node9" class="node"><title>StaffMember</title>
<ellipse fill="none" stroke="black" cx="275" cy="-90" rx="62.0305" ry="18"/>
<text text-anchor="middle" x="275" y="-84.4" font-family="Times,serif" font-size="14.00">StaffMember</text>
</g>
<!-- LectureCourse&#45;&gt;StaffMember -->
<g id="edge10" class="edge"><title>LectureCourse&#45;&gt;StaffMember</title>
<path fill="none" stroke="#86b73a" d="M246.345,-135.575C250.34,-129.359 254.617,-122.707 258.615,-116.489"/>
<polygon fill="#86b73a" stroke="#86b73a" points="246.301,-135.643 237.108,-141.622 243.597,-139.849 240.893,-144.055 240.893,-144.055 240.893,-144.055 243.597,-139.849 244.679,-146.488 246.301,-135.643 246.301,-135.643"/>
<polygon fill="#86b73a" stroke="#86b73a" points="258.799,-116.201 267.992,-110.222 261.503,-111.995 264.207,-107.789 264.207,-107.789 264.207,-107.789 261.503,-111.995 260.422,-105.356 258.799,-116.201 258.799,-116.201"/>
</g>
<!-- TimetableSlot -->
<g id="node12" class="node"><title>TimetableSlot</title>
<ellipse fill="none" stroke="black" cx="529" cy="-18" rx="65.1205" ry="18"/>
<text text-anchor="middle" x="529" y="-12.4" font-family="Times,serif" font-size="14.00">TimetableSlot</text>
</g>
<!-- LectureCourse&#45;&gt;TimetableSlot -->
<g id="edge16" class="edge"><title>LectureCourse&#45;&gt;TimetableSlot</title>
<path fill="none" stroke="#5addba" d="M278.828,-144.937C305.478,-135.474 338.711,-122.525 367,-108 392.99,-94.6557 396.643,-86.5097 422,-72 443.125,-59.9122 467.379,-47.7642 487.448,-38.1538"/>
<ellipse fill="none" stroke="#5addba" cx="274.914" cy="-146.31" rx="4.00001" ry="4.00001"/>
<polygon fill="#5addba" stroke="#5addba" points="487.606,-38.0787 498.57,-37.8539 492.123,-35.9338 496.639,-33.7889 496.639,-33.7889 496.639,-33.7889 492.123,-35.9338 494.709,-29.724 487.606,-38.0787 487.606,-38.0787"/>
</g>
<!-- Room -->
<g id="node8" class="node"><title>Room</title>
<ellipse fill="none" stroke="black" cx="549" cy="-90" rx="34.4683" ry="18"/>
<text text-anchor="middle" x="549" y="-84.4" font-family="Times,serif" font-size="14.00">Room</text>
</g>
<!-- Room&#45;&gt;TimetableSlot -->
<g id="edge18" class="edge"><title>Room&#45;&gt;TimetableSlot</title>
<path fill="none" stroke="#9f9aca" d="M541.934,-64.2675C540.24,-58.34 538.423,-51.9814 536.702,-45.9587"/>
<ellipse fill="none" stroke="#9f9aca" cx="543.06" cy="-68.2089" rx="4.00001" ry="4.00001"/>
<polygon fill="#9f9aca" stroke="#9f9aca" points="536.683,-45.8905 538.263,-35.039 535.309,-41.0829 533.936,-36.2753 533.936,-36.2753 533.936,-36.2753 535.309,-41.0829 529.609,-37.5116 536.683,-45.8905 536.683,-45.8905"/>
</g>
<!-- StaffMember&#45;&gt;CourseWeek -->
<g id="edge22" class="edge"><title>StaffMember&#45;&gt;CourseWeek</title>
<path fill="none" stroke="#3b200c" d="M302.264,-67.7944C313.011,-59.4361 325.364,-49.8283 336.25,-41.3607"/>
<ellipse fill="none" stroke="#3b200c" cx="299.031" cy="-70.3089" rx="4.00002" ry="4.00002"/>
<polygon fill="#3b200c" stroke="#3b200c" points="336.346,-41.2868 347.002,-38.6994 340.292,-38.217 344.239,-35.1473 344.239,-35.1473 344.239,-35.1473 340.292,-38.217 341.476,-31.5952 336.346,-41.2868 336.346,-41.2868"/>
</g>
<!-- StaffMember&#45;&gt;Lecturer -->
<g id="edge20" class="edge"><title>StaffMember&#45;&gt;Lecturer</title>
<path fill="none" stroke="#81c089" d="M255.043,-66.0984C248.645,-58.7569 241.542,-50.6056 235.068,-43.1761"/>
<ellipse fill="none" stroke="#81c089" cx="257.916" cy="-69.3953" rx="4.00002" ry="4.00002"/>
<polygon fill="#81c089" stroke="#81c089" points="234.922,-43.0091 231.745,-32.5135 231.637,-39.2395 228.352,-35.4699 228.352,-35.4699 228.352,-35.4699 231.637,-39.2395 224.96,-38.4264 234.922,-43.0091 234.922,-43.0091"/>
</g>
<!-- Term -->
<g id="node10" class="node"><title>Term</title>
<ellipse fill="none" stroke="black" cx="464" cy="-162" rx="30.9145" ry="18"/>
<text text-anchor="middle" x="464" y="-156.4" font-family="Times,serif" font-size="14.00">Term</text>
</g>
<!-- Week -->
<g id="node13" class="node"><title>Week</title>
<ellipse fill="none" stroke="black" cx="464" cy="-90" rx="32.1792" ry="18"/>
<text text-anchor="middle" x="464" y="-84.4" font-family="Times,serif" font-size="14.00">Week</text>
</g>
<!-- Term&#45;&gt;Week -->
<g id="edge24" class="edge"><title>Term&#45;&gt;Week</title>
<path fill="none" stroke="#9f659b" d="M464,-135.64C464,-130.063 464,-124.132 464,-118.476"/>
<ellipse fill="none" stroke="#9f659b" cx="464" cy="-139.697" rx="4" ry="4"/>
<polygon fill="#9f659b" stroke="#9f659b" points="464,-118.104 468.5,-108.104 464,-113.104 464,-108.104 464,-108.104 464,-108.104 464,-113.104 459.5,-108.104 464,-118.104 464,-118.104"/>
</g>
<!-- TimeSlot&#45;&gt;TimetableSlot -->
<g id="edge26" class="edge"><title>TimeSlot&#45;&gt;TimetableSlot</title>
<path fill="none" stroke="#23a151" d="M616.593,-70.5256C600.511,-61.0652 580.874,-49.5142 564.272,-39.7484"/>
<ellipse fill="none" stroke="#23a151" cx="620.184" cy="-72.6374" rx="4.00002" ry="4.00002"/>
<polygon fill="#23a151" stroke="#23a151" points="564.022,-39.6014 557.685,-30.6525 559.713,-37.0663 555.403,-34.5312 555.403,-34.5312 555.403,-34.5312 559.713,-37.0663 553.121,-38.4099 564.022,-39.6014 564.022,-39.6014"/>
</g>
<!-- Week&#45;&gt;CourseWeek -->
<g id="edge28" class="edge"><title>Week&#45;&gt;CourseWeek</title>
<path fill="none" stroke="#6bf210" d="M437.542,-70.2923C424.669,-61.1904 409.12,-50.1962 395.725,-40.7248"/>
<ellipse fill="none" stroke="#6bf210" cx="441.175" cy="-72.8609" rx="4.00002" ry="4.00002"/>
<polygon fill="#6bf210" stroke="#6bf210" points="395.448,-40.5291 389.881,-31.0814 391.366,-37.6424 387.283,-34.7557 387.283,-34.7557 387.283,-34.7557 391.366,-37.6424 384.685,-38.43 395.448,-40.5291 395.448,-40.5291"/>
</g>
<!-- Week&#45;&gt;TimetableSlot -->
<g id="edge30" class="edge"><title>Week&#45;&gt;TimetableSlot</title>
<path fill="none" stroke="#462276" d="M484.03,-67.4296C491.077,-59.8401 499.047,-51.2575 506.298,-43.4481"/>
<ellipse fill="none" stroke="#462276" cx="481.147" cy="-70.5335" rx="4.00002" ry="4.00002"/>
<polygon fill="#462276" stroke="#462276" points="506.445,-43.2898 516.547,-39.0238 509.847,-39.6258 513.25,-35.9618 513.25,-35.9618 513.25,-35.9618 509.847,-39.6258 509.952,-32.8997 506.445,-43.2898 506.445,-43.2898"/>
</g>
<!-- Year -->
<g id="node14" class="node"><title>Year</title>
<ellipse fill="none" stroke="black" cx="464" cy="-259" rx="28.2584" ry="18"/>
<text text-anchor="middle" x="464" y="-253.4" font-family="Times,serif" font-size="14.00">Year</text>
</g>
<!-- Year&#45;&gt;Term -->
<g id="edge32" class="edge"><title>Year&#45;&gt;Term</title>
<path fill="none" stroke="#ac43b8" d="M464,-232.414C464,-219.518 464,-203.862 464,-190.685"/>
<ellipse fill="none" stroke="#ac43b8" cx="464" cy="-236.576" rx="4" ry="4"/>
<polygon fill="#ac43b8" stroke="#ac43b8" points="464,-190.314 468.5,-180.314 464,-185.314 464,-180.314 464,-180.314 464,-180.314 464,-185.314 459.5,-180.314 464,-190.314 464,-190.314"/>
</g>
</g>
</svg>
