<?xml version="1.0" encoding="UTF-8" standalone="no"?>
<!DOCTYPE svg PUBLIC "-//W3C//DTD SVG 1.1//EN"
 "http://www.w3.org/Graphics/SVG/1.1/DTD/svg11.dtd">
<!-- Generated by graphviz version 2.28.0 (20121209.2319)
 -->
<!-- Title: models_diagram Pages: 1 -->
<svg width="912pt" height="790pt"
 viewBox="0.00 0.00 912.00 790.00" xmlns="http://www.w3.org/2000/svg" xmlns:xlink="http://www.w3.org/1999/xlink">
<g id="graph1" class="graph" transform="scale(1 1) rotate(0) translate(4 786)">
<title>models_diagram</title>
<polygon fill="white" stroke="white" points="-4,5 -4,-786 909,-786 909,5 -4,5"/>
<!-- _diagram_info -->
<g id="node1" class="node"><title>_diagram_info</title>
<text text-anchor="start" x="252.312" y="-757" font-family="Times,serif" font-size="13.00">Models diagram</text>
<text text-anchor="start" x="252.312" y="-741.4" font-family="Times,serif" font-size="13.00">Date: Dec 09 2012 &#45; 23:21</text>
<text text-anchor="start" x="252.312" y="-725.8" font-family="Times,serif" font-size="13.00">Migration version: 20121209225331</text>
<text text-anchor="start" x="252.312" y="-710.2" font-family="Times,serif" font-size="13.00">Generated by RailRoady 1.1.0</text>
<text text-anchor="start" x="252.312" y="-694.6" font-family="Times,serif" font-size="13.00">http://railroady.prestonlee.com</text>
</g>
<!-- CourseWeek -->
<g id="node2" class="node"><title>CourseWeek</title>
<polyline fill="none" stroke="black" points="371.115,-17.2 508.885,-17.2 "/>
<path fill="none" stroke="black" d="M508.885,-17.2C514.885,-17.2 520.885,-23.2 520.885,-29.2"/>
<polyline fill="none" stroke="black" points="520.885,-29.2 520.885,-138.8 "/>
<path fill="none" stroke="black" d="M520.885,-138.8C520.885,-144.8 514.885,-150.8 508.885,-150.8"/>
<polyline fill="none" stroke="black" points="508.885,-150.8 371.115,-150.8 "/>
<path fill="none" stroke="black" d="M371.115,-150.8C365.115,-150.8 359.115,-144.8 359.115,-138.8"/>
<polyline fill="none" stroke="black" points="359.115,-138.8 359.115,-29.2 "/>
<path fill="none" stroke="black" d="M359.115,-29.2C359.115,-23.2 365.115,-17.2 371.115,-17.2"/>
<text text-anchor="middle" x="440" y="-132.8" font-family="Times,serif" font-size="14.00">CourseWeek</text>
<polyline fill="none" stroke="black" points="359.115,-126 520.885,-126 "/>
<text text-anchor="start" x="367.115" y="-108" font-family="Times,serif" font-size="14.00">id :integer</text>
<text text-anchor="start" x="367.115" y="-91.2" font-family="Times,serif" font-size="14.00">week_id :integer</text>
<text text-anchor="start" x="367.115" y="-74.4" font-family="Times,serif" font-size="14.00">lecture_course_id :integer</text>
<text text-anchor="start" x="367.115" y="-57.6" font-family="Times,serif" font-size="14.00">staff_member_id :integer</text>
<text text-anchor="start" x="367.115" y="-40.8" font-family="Times,serif" font-size="14.00">created_at :datetime</text>
<text text-anchor="start" x="367.115" y="-24" font-family="Times,serif" font-size="14.00">updated_at :datetime</text>
</g>
<!-- Day -->
<g id="node3" class="node"><title>Day</title>
<polyline fill="none" stroke="black" points="783.495,-459.6 892.505,-459.6 "/>
<path fill="none" stroke="black" d="M892.505,-459.6C898.505,-459.6 904.505,-465.6 904.505,-471.6"/>
<polyline fill="none" stroke="black" points="904.505,-471.6 904.505,-564.4 "/>
<path fill="none" stroke="black" d="M904.505,-564.4C904.505,-570.4 898.505,-576.4 892.505,-576.4"/>
<polyline fill="none" stroke="black" points="892.505,-576.4 783.495,-576.4 "/>
<path fill="none" stroke="black" d="M783.495,-576.4C777.495,-576.4 771.495,-570.4 771.495,-564.4"/>
<polyline fill="none" stroke="black" points="771.495,-564.4 771.495,-471.6 "/>
<path fill="none" stroke="black" d="M771.495,-471.6C771.495,-465.6 777.495,-459.6 783.495,-459.6"/>
<text text-anchor="middle" x="838" y="-558.4" font-family="Times,serif" font-size="14.00">Day</text>
<polyline fill="none" stroke="black" points="771.495,-551.6 904.505,-551.6 "/>
<text text-anchor="start" x="779.495" y="-533.6" font-family="Times,serif" font-size="14.00">id :integer</text>
<text text-anchor="start" x="779.495" y="-516.8" font-family="Times,serif" font-size="14.00">no :integer</text>
<text text-anchor="start" x="779.495" y="-500" font-family="Times,serif" font-size="14.00">name :string</text>
<text text-anchor="start" x="779.495" y="-483.2" font-family="Times,serif" font-size="14.00">created_at :datetime</text>
<text text-anchor="start" x="779.495" y="-466.4" font-family="Times,serif" font-size="14.00">updated_at :datetime</text>
</g>
<!-- TimeSlot -->
<g id="node11" class="node"><title>TimeSlot</title>
<polyline fill="none" stroke="black" points="783.495,-221.6 892.505,-221.6 "/>
<path fill="none" stroke="black" d="M892.505,-221.6C898.505,-221.6 904.505,-227.6 904.505,-233.6"/>
<polyline fill="none" stroke="black" points="904.505,-233.6 904.505,-326.4 "/>
<path fill="none" stroke="black" d="M904.505,-326.4C904.505,-332.4 898.505,-338.4 892.505,-338.4"/>
<polyline fill="none" stroke="black" points="892.505,-338.4 783.495,-338.4 "/>
<path fill="none" stroke="black" d="M783.495,-338.4C777.495,-338.4 771.495,-332.4 771.495,-326.4"/>
<polyline fill="none" stroke="black" points="771.495,-326.4 771.495,-233.6 "/>
<path fill="none" stroke="black" d="M771.495,-233.6C771.495,-227.6 777.495,-221.6 783.495,-221.6"/>
<text text-anchor="middle" x="838" y="-320.4" font-family="Times,serif" font-size="14.00">TimeSlot</text>
<polyline fill="none" stroke="black" points="771.495,-313.6 904.505,-313.6 "/>
<text text-anchor="start" x="779.495" y="-295.6" font-family="Times,serif" font-size="14.00">id :integer</text>
<text text-anchor="start" x="779.495" y="-278.8" font-family="Times,serif" font-size="14.00">day_id :integer</text>
<text text-anchor="start" x="779.495" y="-262" font-family="Times,serif" font-size="14.00">start_hour :integer</text>
<text text-anchor="start" x="779.495" y="-245.2" font-family="Times,serif" font-size="14.00">created_at :datetime</text>
<text text-anchor="start" x="779.495" y="-228.4" font-family="Times,serif" font-size="14.00">updated_at :datetime</text>
</g>
<!-- Day&#45;&gt;TimeSlot -->
<g id="edge2" class="edge"><title>Day&#45;&gt;TimeSlot</title>
<path fill="none" stroke="#b19552" d="M838,-451.229C838,-419.338 838,-381.07 838,-348.902"/>
<ellipse fill="none" stroke="#b19552" cx="838" cy="-455.57" rx="4" ry="4"/>
<polygon fill="#b19552" stroke="#b19552" points="838,-348.688 842.5,-338.688 838,-343.688 838,-338.688 838,-338.688 838,-338.688 838,-343.688 833.5,-338.688 838,-348.688 838,-348.688"/>
</g>
<!-- DegreeClass -->
<g id="node4" class="node"><title>DegreeClass</title>
<polyline fill="none" stroke="black" points="25.4946,-213.2 134.505,-213.2 "/>
<path fill="none" stroke="black" d="M134.505,-213.2C140.505,-213.2 146.505,-219.2 146.505,-225.2"/>
<polyline fill="none" stroke="black" points="146.505,-225.2 146.505,-334.8 "/>
<path fill="none" stroke="black" d="M146.505,-334.8C146.505,-340.8 140.505,-346.8 134.505,-346.8"/>
<polyline fill="none" stroke="black" points="134.505,-346.8 25.4946,-346.8 "/>
<path fill="none" stroke="black" d="M25.4946,-346.8C19.4946,-346.8 13.4946,-340.8 13.4946,-334.8"/>
<polyline fill="none" stroke="black" points="13.4946,-334.8 13.4946,-225.2 "/>
<path fill="none" stroke="black" d="M13.4946,-225.2C13.4946,-219.2 19.4946,-213.2 25.4946,-213.2"/>
<text text-anchor="middle" x="80" y="-328.8" font-family="Times,serif" font-size="14.00">DegreeClass</text>
<polyline fill="none" stroke="black" points="13.4946,-322 146.505,-322 "/>
<text text-anchor="start" x="21.4946" y="-304" font-family="Times,serif" font-size="14.00">id :integer</text>
<text text-anchor="start" x="21.4946" y="-287.2" font-family="Times,serif" font-size="14.00">degreeyr :string</text>
<text text-anchor="start" x="21.4946" y="-270.4" font-family="Times,serif" font-size="14.00">letteryr :string</text>
<text text-anchor="start" x="21.4946" y="-253.6" font-family="Times,serif" font-size="14.00">title :string</text>
<text text-anchor="start" x="21.4946" y="-236.8" font-family="Times,serif" font-size="14.00">created_at :datetime</text>
<text text-anchor="start" x="21.4946" y="-220" font-family="Times,serif" font-size="14.00">updated_at :datetime</text>
</g>
<!-- Requirement -->
<g id="node7" class="node"><title>Requirement</title>
<polyline fill="none" stroke="black" points="11.1152,-17.2 148.885,-17.2 "/>
<path fill="none" stroke="black" d="M148.885,-17.2C154.885,-17.2 160.885,-23.2 160.885,-29.2"/>
<polyline fill="none" stroke="black" points="160.885,-29.2 160.885,-138.8 "/>
<path fill="none" stroke="black" d="M160.885,-138.8C160.885,-144.8 154.885,-150.8 148.885,-150.8"/>
<polyline fill="none" stroke="black" points="148.885,-150.8 11.1152,-150.8 "/>
<path fill="none" stroke="black" d="M11.1152,-150.8C5.11523,-150.8 -0.884766,-144.8 -0.884766,-138.8"/>
<polyline fill="none" stroke="black" points="-0.884766,-138.8 -0.884766,-29.2 "/>
<path fill="none" stroke="black" d="M-0.884766,-29.2C-0.884766,-23.2 5.11523,-17.2 11.1152,-17.2"/>
<text text-anchor="middle" x="80" y="-132.8" font-family="Times,serif" font-size="14.00">Requirement</text>
<polyline fill="none" stroke="black" points="-0.884766,-126 160.885,-126 "/>
<text text-anchor="start" x="7.11523" y="-108" font-family="Times,serif" font-size="14.00">id :integer</text>
<text text-anchor="start" x="7.11523" y="-91.2" font-family="Times,serif" font-size="14.00">lecture_course_id :integer</text>
<text text-anchor="start" x="7.11523" y="-74.4" font-family="Times,serif" font-size="14.00">degree_class_id :integer</text>
<text text-anchor="start" x="7.11523" y="-57.6" font-family="Times,serif" font-size="14.00">required :string</text>
<text text-anchor="start" x="7.11523" y="-40.8" font-family="Times,serif" font-size="14.00">created_at :datetime</text>
<text text-anchor="start" x="7.11523" y="-24" font-family="Times,serif" font-size="14.00">updated_at :datetime</text>
</g>
<!-- DegreeClass&#45;&gt;Requirement -->
<g id="edge4" class="edge"><title>DegreeClass&#45;&gt;Requirement</title>
<path fill="none" stroke="#a79d66" d="M80,-204.989C80,-190.722 80,-175.751 80,-161.41"/>
<ellipse fill="none" stroke="#a79d66" cx="80" cy="-209.05" rx="4" ry="4"/>
<polygon fill="#a79d66" stroke="#a79d66" points="80.0001,-161.097 84.5,-151.097 80,-156.097 80,-151.097 80,-151.097 80,-151.097 80,-156.097 75.5,-151.097 80.0001,-161.097 80.0001,-161.097"/>
</g>
<!-- LectureCourse -->
<g id="node5" class="node"><title>LectureCourse</title>
<polyline fill="none" stroke="black" points="202.774,-392.4 317.226,-392.4 "/>
<path fill="none" stroke="black" d="M317.226,-392.4C323.226,-392.4 329.226,-398.4 329.226,-404.4"/>
<polyline fill="none" stroke="black" points="329.226,-404.4 329.226,-631.6 "/>
<path fill="none" stroke="black" d="M329.226,-631.6C329.226,-637.6 323.226,-643.6 317.226,-643.6"/>
<polyline fill="none" stroke="black" points="317.226,-643.6 202.774,-643.6 "/>
<path fill="none" stroke="black" d="M202.774,-643.6C196.774,-643.6 190.774,-637.6 190.774,-631.6"/>
<polyline fill="none" stroke="black" points="190.774,-631.6 190.774,-404.4 "/>
<path fill="none" stroke="black" d="M190.774,-404.4C190.774,-398.4 196.774,-392.4 202.774,-392.4"/>
<text text-anchor="middle" x="260" y="-625.6" font-family="Times,serif" font-size="14.00">LectureCourse</text>
<polyline fill="none" stroke="black" points="190.774,-618.8 329.226,-618.8 "/>
<text text-anchor="start" x="198.774" y="-600.8" font-family="Times,serif" font-size="14.00">id :integer</text>
<text text-anchor="start" x="198.774" y="-584" font-family="Times,serif" font-size="14.00">code :string</text>
<text text-anchor="start" x="198.774" y="-567.2" font-family="Times,serif" font-size="14.00">title :string</text>
<text text-anchor="start" x="198.774" y="-550.4" font-family="Times,serif" font-size="14.00">term :string</text>
<text text-anchor="start" x="198.774" y="-533.6" font-family="Times,serif" font-size="14.00">classes :string</text>
<text text-anchor="start" x="198.774" y="-516.8" font-family="Times,serif" font-size="14.00">lecturehours :integer</text>
<text text-anchor="start" x="198.774" y="-500" font-family="Times,serif" font-size="14.00">tutorialhours :integer</text>
<text text-anchor="start" x="198.774" y="-483.2" font-family="Times,serif" font-size="14.00">labhours :integer</text>
<text text-anchor="start" x="198.774" y="-466.4" font-family="Times,serif" font-size="14.00">weeklyhours :integer</text>
<text text-anchor="start" x="198.774" y="-449.6" font-family="Times,serif" font-size="14.00">popestimate :integer</text>
<text text-anchor="start" x="198.774" y="-432.8" font-family="Times,serif" font-size="14.00">popregistered :integer</text>
<text text-anchor="start" x="198.774" y="-416" font-family="Times,serif" font-size="14.00">created_at :datetime</text>
<text text-anchor="start" x="198.774" y="-399.2" font-family="Times,serif" font-size="14.00">updated_at :datetime</text>
</g>
<!-- LectureCourse&#45;&gt;CourseWeek -->
<g id="edge14" class="edge"><title>LectureCourse&#45;&gt;CourseWeek</title>
<path fill="none" stroke="#9a4843" d="M334.641,-433.848C352.791,-410.064 370.539,-383.181 383,-356 411.481,-293.873 425.907,-217.182 433.106,-161.258"/>
<ellipse fill="none" stroke="#9a4843" cx="331.964" cy="-437.309" rx="4.00002" ry="4.00002"/>
<polygon fill="#9a4843" stroke="#9a4843" points="433.139,-160.99 438.834,-151.619 433.753,-156.028 434.368,-151.066 434.368,-151.066 434.368,-151.066 433.753,-156.028 429.902,-150.513 433.139,-160.99 433.139,-160.99"/>
</g>
<!-- LectureCourse&#45;&gt;DegreeClass -->
<g id="edge12" class="edge"><title>LectureCourse&#45;&gt;DegreeClass</title>
<path fill="none" stroke="#2892c0" d="M184.499,-418.009C168.425,-396.935 151.718,-375.031 136.501,-355.08"/>
<polygon fill="#2892c0" stroke="#2892c0" points="184.6,-418.143 187.087,-428.823 187.633,-422.118 190.665,-426.094 190.665,-426.094 190.665,-426.094 187.633,-422.118 194.243,-423.365 184.6,-418.143 184.6,-418.143"/>
<polygon fill="#2892c0" stroke="#2892c0" points="136.367,-354.903 133.88,-344.223 133.334,-350.927 130.302,-346.952 130.302,-346.952 130.302,-346.952 133.334,-350.927 126.724,-349.681 136.367,-354.903 136.367,-354.903"/>
</g>
<!-- Lecturer -->
<g id="node6" class="node"><title>Lecturer</title>
<polyline fill="none" stroke="black" points="191.115,-0.4 328.885,-0.4 "/>
<path fill="none" stroke="black" d="M328.885,-0.4C334.885,-0.4 340.885,-6.4 340.885,-12.4"/>
<polyline fill="none" stroke="black" points="340.885,-12.4 340.885,-155.6 "/>
<path fill="none" stroke="black" d="M340.885,-155.6C340.885,-161.6 334.885,-167.6 328.885,-167.6"/>
<polyline fill="none" stroke="black" points="328.885,-167.6 191.115,-167.6 "/>
<path fill="none" stroke="black" d="M191.115,-167.6C185.115,-167.6 179.115,-161.6 179.115,-155.6"/>
<polyline fill="none" stroke="black" points="179.115,-155.6 179.115,-12.4 "/>
<path fill="none" stroke="black" d="M179.115,-12.4C179.115,-6.4 185.115,-0.4 191.115,-0.4"/>
<text text-anchor="middle" x="260" y="-149.6" font-family="Times,serif" font-size="14.00">Lecturer</text>
<polyline fill="none" stroke="black" points="179.115,-142.8 340.885,-142.8 "/>
<text text-anchor="start" x="187.115" y="-124.8" font-family="Times,serif" font-size="14.00">id :integer</text>
<text text-anchor="start" x="187.115" y="-108" font-family="Times,serif" font-size="14.00">lecture_course_id :integer</text>
<text text-anchor="start" x="187.115" y="-91.2" font-family="Times,serif" font-size="14.00">staff_member_id :integer</text>
<text text-anchor="start" x="187.115" y="-74.4" font-family="Times,serif" font-size="14.00">role :string</text>
<text text-anchor="start" x="187.115" y="-57.6" font-family="Times,serif" font-size="14.00">staffhours :integer</text>
<text text-anchor="start" x="187.115" y="-40.8" font-family="Times,serif" font-size="14.00">term :string</text>
<text text-anchor="start" x="187.115" y="-24" font-family="Times,serif" font-size="14.00">created_at :datetime</text>
<text text-anchor="start" x="187.115" y="-7.2" font-family="Times,serif" font-size="14.00">updated_at :datetime</text>
</g>
<!-- LectureCourse&#45;&gt;Lecturer -->
<g id="edge8" class="edge"><title>LectureCourse&#45;&gt;Lecturer</title>
<path fill="none" stroke="#445948" d="M235.043,-384.063C233.831,-374.59 232.791,-365.164 232,-356 226.191,-288.695 224.212,-271.105 232,-204 232.996,-195.422 234.382,-186.565 236.01,-177.734"/>
<ellipse fill="none" stroke="#445948" cx="235.575" cy="-388.062" rx="4.00001" ry="4.00001"/>
<polygon fill="#445948" stroke="#445948" points="236.034,-177.607 242.36,-168.649 236.988,-172.699 237.942,-167.791 237.942,-167.791 237.942,-167.791 236.988,-172.699 233.525,-166.932 236.034,-177.607 236.034,-177.607"/>
</g>
<!-- LectureCourse&#45;&gt;Requirement -->
<g id="edge6" class="edge"><title>LectureCourse&#45;&gt;Requirement</title>
<path fill="none" stroke="#2b763c" d="M223.135,-384.135C205.445,-327.42 182.162,-261.246 155,-204 148.021,-189.292 139.591,-174.174 130.939,-159.858"/>
<ellipse fill="none" stroke="#2b763c" cx="224.41" cy="-388.252" rx="4.00001" ry="4.00001"/>
<polygon fill="#2b763c" stroke="#2b763c" points="130.768,-159.579 129.369,-148.703 128.151,-155.319 125.534,-151.058 125.534,-151.058 125.534,-151.058 128.151,-155.319 121.7,-153.414 130.768,-159.579 130.768,-159.579"/>
</g>
<!-- StaffMember -->
<g id="node9" class="node"><title>StaffMember</title>
<polyline fill="none" stroke="black" points="253.495,-204.8 362.505,-204.8 "/>
<path fill="none" stroke="black" d="M362.505,-204.8C368.505,-204.8 374.505,-210.8 374.505,-216.8"/>
<polyline fill="none" stroke="black" points="374.505,-216.8 374.505,-343.2 "/>
<path fill="none" stroke="black" d="M374.505,-343.2C374.505,-349.2 368.505,-355.2 362.505,-355.2"/>
<polyline fill="none" stroke="black" points="362.505,-355.2 253.495,-355.2 "/>
<path fill="none" stroke="black" d="M253.495,-355.2C247.495,-355.2 241.495,-349.2 241.495,-343.2"/>
<polyline fill="none" stroke="black" points="241.495,-343.2 241.495,-216.8 "/>
<path fill="none" stroke="black" d="M241.495,-216.8C241.495,-210.8 247.495,-204.8 253.495,-204.8"/>
<text text-anchor="middle" x="308" y="-337.2" font-family="Times,serif" font-size="14.00">StaffMember</text>
<polyline fill="none" stroke="black" points="241.495,-330.4 374.505,-330.4 "/>
<text text-anchor="start" x="249.495" y="-312.4" font-family="Times,serif" font-size="14.00">id :integer</text>
<text text-anchor="start" x="249.495" y="-295.6" font-family="Times,serif" font-size="14.00">login :string</text>
<text text-anchor="start" x="249.495" y="-278.8" font-family="Times,serif" font-size="14.00">salutation :string</text>
<text text-anchor="start" x="249.495" y="-262" font-family="Times,serif" font-size="14.00">firstname :string</text>
<text text-anchor="start" x="249.495" y="-245.2" font-family="Times,serif" font-size="14.00">lastname :string</text>
<text text-anchor="start" x="249.495" y="-228.4" font-family="Times,serif" font-size="14.00">created_at :datetime</text>
<text text-anchor="start" x="249.495" y="-211.6" font-family="Times,serif" font-size="14.00">updated_at :datetime</text>
</g>
<!-- LectureCourse&#45;&gt;StaffMember -->
<g id="edge10" class="edge"><title>LectureCourse&#45;&gt;StaffMember</title>
<path fill="none" stroke="#e0b33f" d="M287.424,-382.166C288.581,-376.475 289.728,-370.837 290.853,-365.308"/>
<polygon fill="#e0b33f" stroke="#e0b33f" points="287.399,-382.29 280.996,-391.193 286.402,-387.19 285.406,-392.089 285.406,-392.089 285.406,-392.089 286.402,-387.19 289.815,-392.986 287.399,-382.29 287.399,-382.29"/>
<polygon fill="#e0b33f" stroke="#e0b33f" points="290.858,-365.281 297.261,-356.379 291.855,-360.382 292.851,-355.482 292.851,-355.482 292.851,-355.482 291.855,-360.382 288.441,-354.585 290.858,-365.281 290.858,-365.281"/>
</g>
<!-- TimetableSlot -->
<g id="node12" class="node"><title>TimetableSlot</title>
<polyline fill="none" stroke="black" points="584.115,-8.8 721.885,-8.8 "/>
<path fill="none" stroke="black" d="M721.885,-8.8C727.885,-8.8 733.885,-14.8 733.885,-20.8"/>
<polyline fill="none" stroke="black" points="733.885,-20.8 733.885,-147.2 "/>
<path fill="none" stroke="black" d="M733.885,-147.2C733.885,-153.2 727.885,-159.2 721.885,-159.2"/>
<polyline fill="none" stroke="black" points="721.885,-159.2 584.115,-159.2 "/>
<path fill="none" stroke="black" d="M584.115,-159.2C578.115,-159.2 572.115,-153.2 572.115,-147.2"/>
<polyline fill="none" stroke="black" points="572.115,-147.2 572.115,-20.8 "/>
<path fill="none" stroke="black" d="M572.115,-20.8C572.115,-14.8 578.115,-8.8 584.115,-8.8"/>
<text text-anchor="middle" x="653" y="-141.2" font-family="Times,serif" font-size="14.00">TimetableSlot</text>
<polyline fill="none" stroke="black" points="572.115,-134.4 733.885,-134.4 "/>
<text text-anchor="start" x="580.115" y="-116.4" font-family="Times,serif" font-size="14.00">id :integer</text>
<text text-anchor="start" x="580.115" y="-99.6" font-family="Times,serif" font-size="14.00">room_id :integer</text>
<text text-anchor="start" x="580.115" y="-82.8" font-family="Times,serif" font-size="14.00">time_slot_id :integer</text>
<text text-anchor="start" x="580.115" y="-66" font-family="Times,serif" font-size="14.00">lecture_course_id :integer</text>
<text text-anchor="start" x="580.115" y="-49.2" font-family="Times,serif" font-size="14.00">week_id :integer</text>
<text text-anchor="start" x="580.115" y="-32.4" font-family="Times,serif" font-size="14.00">created_at :datetime</text>
<text text-anchor="start" x="580.115" y="-15.6" font-family="Times,serif" font-size="14.00">updated_at :datetime</text>
</g>
<!-- LectureCourse&#45;&gt;TimetableSlot -->
<g id="edge16" class="edge"><title>LectureCourse&#45;&gt;TimetableSlot</title>
<path fill="none" stroke="#59a768" d="M335.2,-455.459C364.751,-427.802 396.643,-393.06 418,-356 452.995,-295.275 415.943,-258.509 460,-204 481.743,-177.099 499.25,-185.646 529,-168 540.274,-161.313 551.936,-154.026 563.392,-146.638"/>
<ellipse fill="none" stroke="#59a768" cx="332.261" cy="-458.179" rx="4.00002" ry="4.00002"/>
<polygon fill="#59a768" stroke="#59a768" points="563.718,-146.427 574.555,-144.751 567.91,-143.702 572.103,-140.978 572.103,-140.978 572.103,-140.978 567.91,-143.702 569.651,-137.204 563.718,-146.427 563.718,-146.427"/>
</g>
<!-- Room -->
<g id="node8" class="node"><title>Room</title>
<polyline fill="none" stroke="black" points="632.495,-221.6 741.505,-221.6 "/>
<path fill="none" stroke="black" d="M741.505,-221.6C747.505,-221.6 753.505,-227.6 753.505,-233.6"/>
<polyline fill="none" stroke="black" points="753.505,-233.6 753.505,-326.4 "/>
<path fill="none" stroke="black" d="M753.505,-326.4C753.505,-332.4 747.505,-338.4 741.505,-338.4"/>
<polyline fill="none" stroke="black" points="741.505,-338.4 632.495,-338.4 "/>
<path fill="none" stroke="black" d="M632.495,-338.4C626.495,-338.4 620.495,-332.4 620.495,-326.4"/>
<polyline fill="none" stroke="black" points="620.495,-326.4 620.495,-233.6 "/>
<path fill="none" stroke="black" d="M620.495,-233.6C620.495,-227.6 626.495,-221.6 632.495,-221.6"/>
<text text-anchor="middle" x="687" y="-320.4" font-family="Times,serif" font-size="14.00">Room</text>
<polyline fill="none" stroke="black" points="620.495,-313.6 753.505,-313.6 "/>
<text text-anchor="start" x="628.495" y="-295.6" font-family="Times,serif" font-size="14.00">id :integer</text>
<text text-anchor="start" x="628.495" y="-278.8" font-family="Times,serif" font-size="14.00">no :integer</text>
<text text-anchor="start" x="628.495" y="-262" font-family="Times,serif" font-size="14.00">capacity :integer</text>
<text text-anchor="start" x="628.495" y="-245.2" font-family="Times,serif" font-size="14.00">created_at :datetime</text>
<text text-anchor="start" x="628.495" y="-228.4" font-family="Times,serif" font-size="14.00">updated_at :datetime</text>
</g>
<!-- Room&#45;&gt;TimetableSlot -->
<g id="edge18" class="edge"><title>Room&#45;&gt;TimetableSlot</title>
<path fill="none" stroke="#d85681" d="M675.549,-213.663C673.059,-199.452 670.389,-184.222 667.791,-169.393"/>
<ellipse fill="none" stroke="#d85681" cx="676.246" cy="-217.641" rx="4.00001" ry="4.00001"/>
<polygon fill="#d85681" stroke="#d85681" points="667.732,-169.057 670.438,-158.431 666.869,-164.133 666.005,-159.208 666.005,-159.208 666.005,-159.208 666.869,-164.133 661.573,-159.984 667.732,-169.057 667.732,-169.057"/>
</g>
<!-- StaffMember&#45;&gt;CourseWeek -->
<g id="edge22" class="edge"><title>StaffMember&#45;&gt;CourseWeek</title>
<path fill="none" stroke="#0542cf" d="M363.186,-197.893C371.823,-185.2 380.714,-172.133 389.245,-159.594"/>
<ellipse fill="none" stroke="#0542cf" cx="360.907" cy="-201.242" rx="4.00002" ry="4.00002"/>
<polygon fill="#0542cf" stroke="#0542cf" points="389.461,-159.277 398.807,-153.541 392.274,-155.143 395.086,-151.01 395.086,-151.01 395.086,-151.01 392.274,-155.143 391.366,-148.478 389.461,-159.277 389.461,-159.277"/>
</g>
<!-- StaffMember&#45;&gt;Lecturer -->
<g id="edge20" class="edge"><title>StaffMember&#45;&gt;Lecturer</title>
<path fill="none" stroke="#573c1b" d="M287.603,-196.563C286.049,-190.282 284.474,-183.917 282.906,-177.577"/>
<ellipse fill="none" stroke="#573c1b" cx="288.618" cy="-200.666" rx="4.00001" ry="4.00001"/>
<polygon fill="#573c1b" stroke="#573c1b" points="282.852,-177.359 284.818,-166.571 281.651,-172.505 280.45,-167.651 280.45,-167.651 280.45,-167.651 281.651,-172.505 276.082,-168.732 282.852,-177.359 282.852,-177.359"/>
</g>
<!-- Term -->
<g id="node10" class="node"><title>Term</title>
<polyline fill="none" stroke="black" points="481.495,-459.6 590.505,-459.6 "/>
<path fill="none" stroke="black" d="M590.505,-459.6C596.505,-459.6 602.505,-465.6 602.505,-471.6"/>
<polyline fill="none" stroke="black" points="602.505,-471.6 602.505,-564.4 "/>
<path fill="none" stroke="black" d="M602.505,-564.4C602.505,-570.4 596.505,-576.4 590.505,-576.4"/>
<polyline fill="none" stroke="black" points="590.505,-576.4 481.495,-576.4 "/>
<path fill="none" stroke="black" d="M481.495,-576.4C475.495,-576.4 469.495,-570.4 469.495,-564.4"/>
<polyline fill="none" stroke="black" points="469.495,-564.4 469.495,-471.6 "/>
<path fill="none" stroke="black" d="M469.495,-471.6C469.495,-465.6 475.495,-459.6 481.495,-459.6"/>
<text text-anchor="middle" x="536" y="-558.4" font-family="Times,serif" font-size="14.00">Term</text>
<polyline fill="none" stroke="black" points="469.495,-551.6 602.505,-551.6 "/>
<text text-anchor="start" x="477.495" y="-533.6" font-family="Times,serif" font-size="14.00">id :integer</text>
<text text-anchor="start" x="477.495" y="-516.8" font-family="Times,serif" font-size="14.00">year_id :integer</text>
<text text-anchor="start" x="477.495" y="-500" font-family="Times,serif" font-size="14.00">no :integer</text>
<text text-anchor="start" x="477.495" y="-483.2" font-family="Times,serif" font-size="14.00">created_at :datetime</text>
<text text-anchor="start" x="477.495" y="-466.4" font-family="Times,serif" font-size="14.00">updated_at :datetime</text>
</g>
<!-- Week -->
<g id="node13" class="node"><title>Week</title>
<polyline fill="none" stroke="black" points="481.495,-221.6 590.505,-221.6 "/>
<path fill="none" stroke="black" d="M590.505,-221.6C596.505,-221.6 602.505,-227.6 602.505,-233.6"/>
<polyline fill="none" stroke="black" points="602.505,-233.6 602.505,-326.4 "/>
<path fill="none" stroke="black" d="M602.505,-326.4C602.505,-332.4 596.505,-338.4 590.505,-338.4"/>
<polyline fill="none" stroke="black" points="590.505,-338.4 481.495,-338.4 "/>
<path fill="none" stroke="black" d="M481.495,-338.4C475.495,-338.4 469.495,-332.4 469.495,-326.4"/>
<polyline fill="none" stroke="black" points="469.495,-326.4 469.495,-233.6 "/>
<path fill="none" stroke="black" d="M469.495,-233.6C469.495,-227.6 475.495,-221.6 481.495,-221.6"/>
<text text-anchor="middle" x="536" y="-320.4" font-family="Times,serif" font-size="14.00">Week</text>
<polyline fill="none" stroke="black" points="469.495,-313.6 602.505,-313.6 "/>
<text text-anchor="start" x="477.495" y="-295.6" font-family="Times,serif" font-size="14.00">id :integer</text>
<text text-anchor="start" x="477.495" y="-278.8" font-family="Times,serif" font-size="14.00">term_id :integer</text>
<text text-anchor="start" x="477.495" y="-262" font-family="Times,serif" font-size="14.00">no :integer</text>
<text text-anchor="start" x="477.495" y="-245.2" font-family="Times,serif" font-size="14.00">created_at :datetime</text>
<text text-anchor="start" x="477.495" y="-228.4" font-family="Times,serif" font-size="14.00">updated_at :datetime</text>
</g>
<!-- Term&#45;&gt;Week -->
<g id="edge24" class="edge"><title>Term&#45;&gt;Week</title>
<path fill="none" stroke="#7d882c" d="M536,-451.229C536,-419.338 536,-381.07 536,-348.902"/>
<ellipse fill="none" stroke="#7d882c" cx="536" cy="-455.57" rx="4" ry="4"/>
<polygon fill="#7d882c" stroke="#7d882c" points="536,-348.688 540.5,-338.688 536,-343.688 536,-338.688 536,-338.688 536,-338.688 536,-343.688 531.5,-338.688 536,-348.688 536,-348.688"/>
</g>
<!-- TimeSlot&#45;&gt;TimetableSlot -->
<g id="edge26" class="edge"><title>TimeSlot&#45;&gt;TimetableSlot</title>
<path fill="none" stroke="#f8873b" d="M777.491,-215.548C762.604,-199.936 746.457,-183.003 730.877,-166.665"/>
<ellipse fill="none" stroke="#f8873b" cx="780.484" cy="-218.686" rx="4.00002" ry="4.00002"/>
<polygon fill="#f8873b" stroke="#f8873b" points="730.666,-166.445 727.022,-156.102 727.216,-162.826 723.765,-159.208 723.765,-159.208 723.765,-159.208 727.216,-162.826 720.508,-162.313 730.666,-166.445 730.666,-166.445"/>
</g>
<!-- Week&#45;&gt;CourseWeek -->
<g id="edge28" class="edge"><title>Week&#45;&gt;CourseWeek</title>
<path fill="none" stroke="#16514e" d="M503.939,-214.211C495.391,-196.936 486.082,-178.123 477.279,-160.335"/>
<ellipse fill="none" stroke="#16514e" cx="505.812" cy="-217.996" rx="4.00002" ry="4.00002"/>
<polygon fill="#16514e" stroke="#16514e" points="477.164,-160.102 476.762,-149.144 474.947,-155.621 472.729,-151.14 472.729,-151.14 472.729,-151.14 474.947,-155.621 468.696,-153.136 477.164,-160.102 477.164,-160.102"/>
</g>
<!-- Week&#45;&gt;TimetableSlot -->
<g id="edge30" class="edge"><title>Week&#45;&gt;TimetableSlot</title>
<path fill="none" stroke="#04cac9" d="M574.835,-214.607C583.866,-199.632 593.605,-183.483 603.041,-167.837"/>
<ellipse fill="none" stroke="#04cac9" cx="572.695" cy="-218.156" rx="4.00002" ry="4.00002"/>
<polygon fill="#04cac9" stroke="#04cac9" points="603.081,-167.771 612.099,-161.532 605.664,-163.489 608.246,-159.208 608.246,-159.208 608.246,-159.208 605.664,-163.489 604.392,-156.884 603.081,-167.771 603.081,-167.771"/>
</g>
<!-- Year -->
<g id="node14" class="node"><title>Year</title>
<polyline fill="none" stroke="black" points="481.495,-681 590.505,-681 "/>
<path fill="none" stroke="black" d="M590.505,-681C596.505,-681 602.505,-687 602.505,-693"/>
<polyline fill="none" stroke="black" points="602.505,-693 602.505,-769 "/>
<path fill="none" stroke="black" d="M602.505,-769C602.505,-775 596.505,-781 590.505,-781"/>
<polyline fill="none" stroke="black" points="590.505,-781 481.495,-781 "/>
<path fill="none" stroke="black" d="M481.495,-781C475.495,-781 469.495,-775 469.495,-769"/>
<polyline fill="none" stroke="black" points="469.495,-769 469.495,-693 "/>
<path fill="none" stroke="black" d="M469.495,-693C469.495,-687 475.495,-681 481.495,-681"/>
<text text-anchor="middle" x="536" y="-763" font-family="Times,serif" font-size="14.00">Year</text>
<polyline fill="none" stroke="black" points="469.495,-756.2 602.505,-756.2 "/>
<text text-anchor="start" x="477.495" y="-738.2" font-family="Times,serif" font-size="14.00">id :integer</text>
<text text-anchor="start" x="477.495" y="-721.4" font-family="Times,serif" font-size="14.00">no :integer</text>
<text text-anchor="start" x="477.495" y="-704.6" font-family="Times,serif" font-size="14.00">created_at :datetime</text>
<text text-anchor="start" x="477.495" y="-687.8" font-family="Times,serif" font-size="14.00">updated_at :datetime</text>
</g>
<!-- Year&#45;&gt;Term -->
<g id="edge32" class="edge"><title>Year&#45;&gt;Term</title>
<path fill="none" stroke="#3c558d" d="M536,-672.564C536,-645.991 536,-614.242 536,-586.528"/>
<ellipse fill="none" stroke="#3c558d" cx="536" cy="-676.796" rx="4" ry="4"/>
<polygon fill="#3c558d" stroke="#3c558d" points="536,-586.517 540.5,-576.517 536,-581.517 536,-576.517 536,-576.517 536,-576.517 536,-581.517 531.5,-576.517 536,-586.517 536,-586.517"/>
</g>
</g>
</svg>
